<?xml version="1.0" encoding="utf-8"?>
<!-- Generator: Adobe Illustrator 21.1.0, SVG Export Plug-In . SVG Version: 6.00 Build 0)  -->
<svg version="1.1" id="Layer_1" xmlns="http://www.w3.org/2000/svg" xmlns:xlink="http://www.w3.org/1999/xlink" x="0px" y="0px"
	 viewBox="0 0 128 126" style="enable-background:new 0 0 128 126;" xml:space="preserve">

<defs>
	<style>

	.st0 {
	fill:none;
	stroke:#000000;
	stroke-miterlimit:10;
	stroke-dasharray: 600;
	stroke-dashoffset:0;
	-webkit-animation: dash 8s linear forwards;
	-o-animation: dash 8s linear forwards;
	-moz-animation: dash 8s linear forwards;
	animation: dash 8s linear forwards;
	}
@-webkit-keyframes dash {
	from {
	stroke-dashoffset: 1000;
	}
	to {
	stroke-dashoffset:0;
		}
	}
	</style>
</defs>
<g>
	<path class="st0" d="M63.7,12c-28.8,0-52.2,23.4-52.2,52.2s23.4,52.2,52.2,52.2S116,93,116,64.2S92.5,12,63.7,12z M67.8,28.1
	c11.3,8,18.7,21.2,18.7,36.1s-7.4,28.1-18.7,36.1V28.1z M59.7,99.9c-11-8-18.1-21-18.1-35.7c0-14.6,7.2-27.6,18.1-35.7V99.9z
	 M19.5,64.2c0-22.2,16.4-40.6,37.8-43.7C43,29.8,33.5,45.9,33.5,64.2s9.5,34.4,23.8,43.7C36,104.8,19.5,86.4,19.5,64.2z M70.9,107.8
	c14.2-9.3,23.6-25.4,23.6-43.6s-9.4-34.3-23.6-43.6c21,3.4,37,21.7,37,43.6C108,86.1,91.9,104.4,70.9,107.8z"/>
</g>
</svg>
